<svg width="800" height="800" viewBox="0 0 800 800" xmlns="http://www.w3.org/2000/svg">
  <defs>
    <!-- Base geometry extracted from logo -->
    <g id="shell" transform="translate(-200, -250)">
        <path d="m 201.89,172.8 c 15.62,-6.62 32.61,-9.24 49.24,-7.59 5.47,16.93 8.23,34.66 8.19,52.6 -6.16,-1.68 -12.7,-1.99 -19.14,-0.9 -10.74,-16.51 -24.24,-31.15 -40.01,-43.37 0.57,-0.25 1.15,-0.49 1.72,-0.74" />
        <path d="m 233.62,218.5 c -1.23,0.41 -2.45,0.87 -3.67,1.38 -5.73,2.42 -11.04,5.75 -15.67,9.85 -20.15,-8.99 -41.94,-14.47 -64.4,-16.2 11.44,-15.41 26.51,-28.08 43.91,-36.93 15.66,11.71 29.11,25.86 39.83,41.9" />
        <path d="m 145.83,219.42 c 22.17,1.32 43.75,6.42 63.72,15.04 -5.54,6.28 -9.52,13.65 -11.62,21.51 -24.6,2.89 -48.49,10.19 -71.14,21.75 0.86,-20.48 7.44,-40.61 19.04,-58.3" />
        <path d="m 215.27,237.22 c 6.33,3.02 12.47,6.36 18.4,10.01 -2.07,2.17 -3.72,4.67 -4.86,7.38 -8.06,-0.23 -16.15,-0.01 -24.23,0.66 2.11,-6.66 5.77,-12.83 10.69,-18.05" />
        <path d="m 196.61,262.17 c -1.13,8.53 -0.02,17.09 3.22,24.91 -21.44,15.45 -39.52,34.74 -53.83,57.44 -4.19,-6.51 -7.8,-13.36 -10.81,-20.47 -5.3,-12.48 -8.18,-25.87 -8.48,-39.53 22.22,-11.77 45.69,-19.27 69.9,-22.35" />
        <path d="m 203.06,261.63 c 8.04,-0.74 16.09,-1.01 24.13,-0.83 -0.36,3.09 -0.05,6.18 0.91,9.09 -7.92,4.03 -15.59,8.52 -22.96,13.46 -2.57,-6.88 -3.28,-14.34 -2.08,-21.72" />
        <path d="m 202.46,292.61 c 4.18,7.65 10.01,14.3 17.13,19.55 -11.75,25.53 -17.53,53 -17.18,81.76 -21.14,-10.2 -39.18,-25.24 -52.58,-43.84 13.86,-22.75 31.55,-42.05 52.63,-57.47" />
        <path d="m 230.75,275.43 c 1.61,2.52 3.64,4.74 6.02,6.6 -5.41,7.82 -10.25,15.98 -14.51,24.4 -6.06,-4.75 -11.01,-10.65 -14.54,-17.37 7.37,-5.01 15.07,-9.56 23.03,-13.63" />
        <path d="m 242.16,285.28 c 2.62,1.2 5.43,2.01 8.35,2.39 -0.84,10.16 -0.87,20.34 -0.08,30.43 -8.2,-1.09 -16.01,-3.83 -22.9,-8.03 4.25,-8.57 9.14,-16.85 14.63,-24.79" />
        <path d="m 224.8,315.65 c 7.96,4.67 16.95,7.6 26.36,8.59 3.48,29.64 14.52,57.77 32.89,83.73 -25.95,2.62 -51.86,-1.21 -75.21,-11.12 -0.84,-28.59 4.53,-55.88 15.96,-81.2" />
        <path d="m 256.96,287.82 c 2.76,-0.24 5.49,-0.87 8.1,-1.85 4.92,9.81 10.71,19.16 17.31,27.97 -8.09,3.29 -16.74,4.89 -25.37,4.7 -0.88,-10.22 -0.89,-20.52 -0.04,-30.82" />
        <path d="m 277.26,278.36 c 10.37,6.48 21.39,12.01 32.92,16.51 -6.23,6.62 -13.61,12.15 -21.8,16.3 -6.7,-8.8 -12.55,-18.18 -17.5,-28.03 2.3,-1.36 4.44,-2.97 6.38,-4.78" />
        <path d="m 285.75,266.25 c 14.07,0.47 28.22,-0.46 42.22,-2.77 -2.64,9.45 -7.21,18.38 -13.42,26.27 -11.56,-4.38 -22.6,-9.82 -32.99,-16.25 1.69,-2.26 3.1,-4.69 4.19,-7.25" />
        <path d="m 327.56,224.68 c 3.21,10.37 3.86,21.42 1.91,32.3 -13.83,2.45 -27.82,3.5 -41.75,3.12 0.69,-3.16 0.9,-6.38 0.65,-9.56 13.99,-7.19 27.15,-15.87 39.19,-25.86" />
        <path d="m 258.17,166.25 c 14.99,2.64 28.92,8.75 40.6,17.79 -4.88,15.64 -11.87,30.68 -20.79,44.73 -3.51,-3.56 -7.69,-6.46 -12.33,-8.56 0.29,-18.36 -2.22,-36.54 -7.48,-53.96" />
        <path d="m 304.05,188.47 c 9.22,8.37 16.45,18.56 21.22,29.93 l 0.05,0.13 c -11.66,9.94 -24.45,18.58 -38.1,25.73 -0.34,-1.15 -0.75,-2.29 -1.22,-3.39 -1.04,-2.47 -2.33,-4.82 -3.85,-7.02 9.27,-14.25 16.63,-29.5 21.9,-45.38" />
    </g>
  </defs>

  <g fill="none" stroke="#FFFFFF" stroke-width="1.5" stroke-opacity="0.15">
    <!-- Center focal point -->
    <use href="#shell" transform="translate(400, 400) scale(1.5)" />
    
    <!-- Large rotational layers for a complex geometric look -->
    <use href="#shell" transform="translate(400, 400) scale(1.2) rotate(45)" />
    <use href="#shell" transform="translate(400, 400) scale(1.2) rotate(135)" />
    <use href="#shell" transform="translate(400, 400) scale(1.2) rotate(225)" />
    <use href="#shell" transform="translate(400, 400) scale(1.2) rotate(315)" />

    <!-- Corner nodes to make the pattern tile better -->
    <use href="#shell" transform="translate(0, 0) scale(0.8) rotate(90)" />
    <use href="#shell" transform="translate(800, 0) scale(0.8) rotate(180)" />
    <use href="#shell" transform="translate(0, 800) scale(0.8) rotate(0)" />
    <use href="#shell" transform="translate(800, 800) scale(0.8) rotate(-90)" />
  </g>
  
  <!-- Second layer with slight color variation (sovereign blue) and lower opacity to add depth -->
  <g fill="none" stroke="#E0F2F1" stroke-width="1" stroke-opacity="0.1">
    <use href="#shell" transform="translate(400, 400) scale(2.5) rotate(15)" />
    <use href="#shell" transform="translate(400, 400) scale(2.5) rotate(195)" />
  </g>
</svg>
