<svg xmlns="http://www.w3.org/2000/svg" viewBox="0 0 637 298" role="img" aria-labelledby="title">
  <title>IMDEA Networks logo</title>
  <g transform="translate(0.000000,298.000000) scale(0.100000,-0.100000)" fill="#E3000B" stroke="none">
    <path d="M0 1785 l0 -605 605 0 605 0 0 605 0 605 -605 0 -605 0 0 -605z m291
    135 c47 0 49 -8 9 -35 -22 -14 -29 -26 -25 -40 2 -11 8 -31 12 -44 l6 -25 -30
    22 c-38 27 -44 27 -77 1 -32 -26 -40 -21 -26 15 15 40 13 49 -21 72 l-30 22
    45 6 c25 4 46 11 46 16 0 5 5 21 11 37 l12 28 15 -37 c13 -35 18 -38 53 -38z
    m205 38 c9 -30 14 -33 52 -36 50 -4 52 -10 12 -37 -31 -20 -32 -26 -13 -90 5
    -19 5 -19 -18 -2 -47 34 -51 34 -99 0 -23 -18 -24 -17 -16 2 21 55 18 69 -15
    89 l-33 20 44 10 c38 9 46 16 54 44 5 17 12 32 16 32 4 0 11 -15 16 -32z m260
    0 c9 -30 14 -33 52 -36 50 -4 52 -11 11 -36 -32 -19 -34 -35 -13 -90 6 -17 3
    -16 -33 5 l-40 23 -28 -22 c-35 -27 -41 -23 -26 20 11 31 10 35 -18 58 l-30
    25 42 10 c35 8 43 15 51 43 5 17 12 32 16 32 4 0 11 -15 16 -32z m259 -8 c6
    -28 10 -30 53 -30 l47 -1 -34 -29 c-34 -29 -36 -40 -15 -95 6 -15 1 -14 -33 6
    l-40 23 -31 -23 c-34 -24 -38 -19 -21 26 9 25 7 31 -21 54 l-32 27 41 7 c34 6
    42 11 51 41 13 39 26 37 35 -6z m-129 -175 c6 -34 8 -35 53 -35 l46 -1 -35
    -28 c-33 -28 -34 -30 -22 -67 14 -48 13 -49 -28 -19 l-33 24 -35 -27 -36 -27
    7 25 c4 14 10 34 13 45 4 15 -3 25 -26 38 -41 25 -38 37 10 37 37 0 40 2 51
    40 14 46 25 44 35 -5z m-520 3 c9 -30 14 -34 54 -38 l45 -5 -34 -26 c-32 -25
    -33 -28 -22 -59 17 -49 14 -53 -18 -31 -32 23 -56 27 -66 11 -3 -5 -15 -15
    -27 -21 -17 -9 -19 -8 -14 8 18 62 17 68 -14 88 -40 27 -38 33 12 37 38 3 43
    6 52 36 5 17 12 32 16 32 4 0 11 -15 16 -32z m260 0 c9 -30 14 -34 54 -38 l45
    -5 -33 -25 c-34 -25 -37 -41 -16 -94 6 -16 2 -15 -31 7 l-38 26 -35 -27 -36
    -27 7 25 c4 14 10 34 12 45 4 14 -3 26 -25 40 -40 27 -38 35 9 35 36 0 40 3
    51 35 14 44 24 44 36 3z"/>
  </g>
  <g transform="translate(0.000000,298.000000) scale(0.100000,-0.100000)" fill="#87B5C9" stroke="none">
    <path d="M1790 2950 c0 -28 3 -30 35 -30 32 0 35 2 35 30 0 28 -3 30 -35 30
    -32 0 -35 -2 -35 -30z M2750 2950 c0 -28 3 -30 35 -30 32 0 35 2 35 30 0 28
    -3 30 -35 30 -32 0 -35 -2 -35 -30z M2560 2875 c0 -33 -4 -45 -15 -45 -9 0
    -15 -9 -15 -24 0 -13 7 -26 15 -30 12 -4 15 -28 15 -125 0 -136 8 -151 82
    -151 35 0 38 2 38 29 0 23 -6 30 -25 35 -26 7 -26 7 -23 109 3 97 4 102 26
    105 34 5 31 52 -3 52 -23 0 -25 4 -25 45 0 45 0 45 -35 45 -35 0 -35 0 -35
    -45z M2920 2879 c0 -32 -4 -42 -20 -46 -13 -3 -20 -14 -20 -28 0 -14 7 -25 20
    -28 19 -5 20 -14 20 -125 0 -140 6 -152 76 -152 42 0 44 1 44 30 0 23 -4 30
    -20 30 -31 0 -41 33 -38 128 3 87 3 87 31 90 21 3 27 9 27 27 0 18 -6 24 -27
    27 -25 3 -28 7 -31 46 -3 39 -5 42 -33 42 -27 0 -29 -2 -29 -41z M3420 2879
    c0 -32 -4 -42 -20 -46 -13 -3 -20 -14 -20 -28 0 -14 7 -25 20 -28 19 -5 20
    -14 20 -131 0 -142 2 -146 79 -146 39 0 41 2 41 30 0 23 -4 30 -20 30 -31 0
    -41 33 -38 128 3 87 3 87 31 90 21 3 27 9 27 27 0 18 -6 24 -27 27 -25 3 -28
    7 -31 46 -3 39 -5 42 -33 42 -27 0 -29 -2 -29 -41z M2062 2830 c-39 -24 -42
    -24 -42 -5 0 10 -10 15 -30 15 l-30 0 0 -165 0 -165 30 0 30 0 0 123 c0 116 1
    125 23 145 13 12 30 22 38 22 33 0 39 -22 39 -157 l0 -133 35 0 35 0 0 143 c0
    166 -8 191 -60 195 -22 1 -48 -5 -68 -18z M2313 2840 c-29 -12 -43 -40 -43
    -88 0 -43 20 -67 80 -97 70 -35 91 -73 51 -95 -20 -10 -71 2 -71 17 -1 24 -18
    33 -43 24 -35 -14 -34 -26 7 -67 62 -62 177 -37 192 42 10 53 -10 82 -81 122
    -78 44 -88 58 -59 86 21 21 27 20 61 -8 26 -22 73 -22 73 -1 0 53 -100 92
    -167 65z M3624 2816 l-34 -34 0 -106 c0 -102 1 -107 28 -137 62 -70 212 -38
    212 45 0 12 -10 16 -35 16 -19 0 -35 -4 -35 -10 0 -5 -11 -17 -25 -26 -39 -25
    -75 2 -75 56 l0 40 85 0 85 0 0 61 c0 71 -10 93 -50 114 -53 28 -117 20 -156
    -19z m116 -26 c6 0 30 -52 30 -66 0 -2 -25 -4 -55 -4 -52 0 -55 1 -55 24 0 27
    37 59 58 51 8 -3 17 -5 22 -5z M1790 2675 l0 -165 35 0 35 0 0 165 0 165 -35
    0 -35 0 0 -165z M2750 2675 l0 -165 35 0 35 0 0 165 0 165 -35 0 -35 0 0 -165z
    M3100 2686 c0 -127 3 -157 16 -170 22 -22 76 -20 107 4 30 24 37 25 37 5 0
    -10 11 -15 35 -15 l35 0 0 165 0 165 -35 0 -34 0 -3 -131 c-3 -129 -3 -130
    -29 -146 -53 -32 -59 -18 -59 137 l0 140 -35 0 -35 0 0 -154z M1800 1785 l0
    -595 190 0 190 0 0 307 c0 168 3 303 8 299 4 -4 45 -141 92 -304 l86 -297 154
    -3 155 -2 84 297 c46 164 88 302 92 307 5 6 9 -123 9 -297 l0 -307 190 0 190
    0 0 595 0 595 -279 0 c-214 0 -280 -3 -283 -12 -3 -7 -38 -149 -78 -316 -41
    -166 -77 -299 -81 -295 -3 5 -36 130 -73 278 -37 149 -71 287 -77 308 l-10 37
    -279 0 -280 0 0 -595z m538 533 c5 -18 44 -176 88 -350 63 -257 82 -318 95
    -318 13 0 31 60 94 315 42 173 81 331 86 350 l10 35 247 -2 247 -3 3 -562 2
    -563 -160 0 -160 0 0 370 c0 497 1 497 -140 0 l-104 -371 -126 3 -125 3 -105
    368 c-87 308 -107 367 -122 367 -17 0 -18 -21 -18 -370 l0 -370 -160 0 -160 0
    0 558 c0 307 3 562 7 565 3 4 116 7 249 7 l243 0 9 -32z M3660 490 l0 -470 80
    0 80 0 0 102 0 103 42 62 c23 34 44 60 46 58 3 -2 30 -75 61 -162 l58 -158 88
    -3 c81 -3 87 -1 80 15 -53 136 -165 438 -165 448 0 7 34 62 75 123 41 61 75
    113 75 116 0 3 -40 6 -88 6 l-89 0 -84 -135 c-46 -74 -87 -134 -91 -135 -5 0
    -8 113 -8 250 l0 250 -80 0 -80 0 0 -470z M1310 795 l0 -95 -30 0 -30 0 0 -65
    0 -65 30 0 30 0 0 -225 c0 -252 6 -280 62 -315 26 -16 50 -20 121 -20 l87 0 0
    68 0 69 -37 1 c-69 3 -74 17 -71 231 l3 186 53 3 52 3 0 65 0 64 -55 0 -55 0
    0 95 0 95 -80 0 -80 0 0 -95z M272 725 c-19 -8 -51 -29 -73 -46 l-39 -31 0 41
    0 41 -80 0 -80 0 0 -355 0 -355 80 0 80 0 0 264 0 264 34 30 c40 35 69 46 100
    38 42 -10 46 -41 46 -326 l0 -270 81 0 80 0 -3 313 c-3 344 -6 360 -68 392
    -36 19 -115 19 -158 0z M785 716 c-60 -27 -110 -81 -124 -133 -6 -21 -11 -120
    -11 -219 0 -180 0 -182 28 -235 43 -82 99 -113 215 -118 161 -6 248 52 271
    181 l7 38 -80 0 c-77 0 -81 -1 -87 -24 -18 -73 -115 -94 -166 -37 -27 30 -29
    38 -26 99 l3 67 179 3 178 2 -4 118 c-4 133 -22 181 -83 228 -78 59 -209 73
    -300 30z m177 -117 c23 -12 48 -66 48 -104 l0 -25 -100 0 -100 0 0 41 c0 76
    84 125 152 88z M2696 725 c-61 -21 -88 -46 -118 -105 -28 -53 -28 -56 -28
    -239 0 -207 7 -245 53 -298 49 -55 96 -73 203 -73 128 0 186 29 229 115 l30
    60 0 185 c0 208 -9 251 -68 308 -60 59 -205 81 -301 47z m181 -149 l28 -24 0
    -175 c0 -172 0 -176 -24 -201 -34 -36 -111 -37 -146 -1 -25 24 -25 27 -25 195
    0 102 4 179 11 191 23 44 112 53 156 15z M3465 725 c-16 -9 -45 -32 -62 -53
    l-33 -37 0 48 0 47 -75 0 -75 0 0 -355 0 -355 80 0 80 0 0 258 0 259 24 22
    c27 25 51 29 109 18 l37 -8 0 86 0 85 -27 0 c-16 0 -41 -7 -58 -15z M4389 713
    c-77 -40 -101 -84 -97 -180 5 -100 30 -130 177 -208 121 -65 149 -92 137 -139
    -21 -86 -166 -52 -198 46 -3 8 -26 6 -75 -6 -81 -20 -81 -18 -27 -103 52 -83
    99 -107 208 -111 162 -6 246 63 246 202 0 103 -32 140 -188 221 -128 65 -158
    107 -109 153 35 33 82 29 121 -10 18 -18 35 -40 38 -48 4 -12 15 -10 69 9 79
    29 73 23 55 59 -67 130 -225 181 -357 115z M1624 713 c3 -10 39 -162 81 -338
    42 -176 78 -328 81 -338 5 -15 16 -17 82 -15 l76 3 41 205 c52 258 48 250 70
    155 9 -44 32 -143 49 -220 l32 -140 77 -3 c76 -3 76 -3 84 25 4 15 41 174 83
    353 l77 325 -65 3 c-36 2 -70 1 -77 -2 -7 -2 -31 -99 -55 -221 -24 -120 -46
    -211 -50 -203 -4 7 -20 67 -34 133 -15 66 -36 159 -47 208 l-21 87 -68 0 c-45
    0 -69 -4 -72 -12 -3 -7 -25 -106 -49 -220 -24 -114 -46 -205 -49 -202 -3 3
    -25 101 -50 217 l-46 212 -78 3 c-71 3 -77 1 -72 -15z"/>
  </g>
  <g transform="translate(0.000000,298.000000) scale(0.100000,-0.100000)" fill="#001131" stroke="none">
    <path d="M3980 2516 l0 -254 -73 49 c-92 61 -143 79 -221 79 -148 0 -243 -98
    -278 -285 -18 -96 -18 -584 0 -682 17 -91 59 -180 104 -219 116 -102 308 -81
    441 49 26 26 50 47 53 47 2 0 4 -31 4 -70 l0 -70 125 0 125 0 0 805 0 805
    -140 0 -140 0 0 -254z m-103 -341 c20 -9 52 -27 70 -41 l33 -25 0 -344 0 -344
    -33 -25 c-110 -84 -208 -69 -252 39 -30 76 -30 584 0 660 34 84 101 113 182
    80z M1370 2625 l0 -125 140 0 140 0 0 125 0 125 -140 0 -140 0 0 -125z M1370
    1785 l0 -605 140 0 140 0 0 605 0 605 -140 0 -140 0 0 -605z M4757 2379 c-118
    -28 -219 -108 -270 -217 l-32 -67 0 -330 0 -330 32 -67 c77 -162 223 -236 444
    -226 160 8 262 56 330 154 36 53 69 148 69 200 l0 34 -133 0 -133 0 -13 -50
    c-36 -141 -231 -166 -306 -39 -16 27 -21 57 -24 147 l-3 112 307 0 306 0 -3
    203 c-3 198 -4 203 -31 259 -52 105 -148 181 -272 214 -56 15 -209 17 -268 3z
    m230 -235 c52 -39 66 -68 71 -148 l5 -76 -172 0 -171 0 0 54 c0 92 32 153 95
    182 43 20 138 13 172 -12z M5795 2376 c-171 -44 -268 -147 -299 -318 l-7 -38
    139 0 140 0 6 35 c13 69 98 123 178 112 83 -11 117 -55 125 -159 l6 -74 -118
    -38 c-345 -114 -493 -245 -503 -447 -11 -216 87 -318 297 -307 102 6 178 32
    253 89 59 44 60 43 73 -33 l6 -38 140 0 c110 0 138 3 132 13 -4 6 -10 228 -13
    492 l-5 480 -26 55 c-44 95 -123 155 -237 179 -69 14 -224 13 -287 -3z m285
    -770 l0 -143 -44 -41 c-63 -58 -102 -76 -168 -76 -133 -2 -181 131 -86 240 53
    60 233 163 286 164 9 0 12 -35 12 -144z"/>
  </g>
  <g transform="translate(0.000000,298.000000) scale(0.100000,-0.100000)" fill="#FFFFFF" stroke="none">
    <path d="M216 1958 c-3 -10 -8 -25 -11 -33 -3 -10 -17 -15 -42 -15 l-38 0 29
    -23 c25 -20 28 -27 21 -56 l-7 -33 27 18 c25 16 28 16 55 0 l29 -16 -10 32
    c-8 29 -6 35 19 55 l27 22 -36 1 c-32 0 -37 4 -46 33 -8 25 -12 28 -17 15z
    M725 1940 c-6 -27 -10 -30 -48 -30 l-42 0 33 -21 c35 -23 36 -26 22 -65 -10
    -27 -10 -27 14 -10 32 20 45 20 69 -1 19 -18 19 -17 12 16 -7 31 -4 38 21 58
    l29 23 -37 0 c-31 0 -37 4 -47 30 -5 17 -12 30 -15 30 -2 0 -7 -13 -11 -30z
    M986 1943 c-7 -31 -11 -33 -48 -33 l-41 0 29 -22 c16 -12 30 -22 31 -23 2 -1
    -1 -16 -7 -33 l-9 -32 29 16 c27 16 30 16 55 0 l26 -17 -6 34 c-6 29 -3 37 20
    56 l28 21 -37 0 c-31 0 -38 4 -49 33 l-14 32 -7 -32z M466 1935 c-5 -21 -12
    -25 -44 -25 l-37 -1 29 -23 c26 -22 28 -27 18 -55 -12 -33 -3 -41 18 -16 16
    19 35 19 65 -1 l25 -16 -12 33 c-10 30 -9 34 18 56 l29 23 -37 0 c-32 0 -39 4
    -44 25 -3 14 -10 25 -14 25 -4 0 -11 -11 -14 -25z M340 1763 c-10 -29 -16 -33
    -48 -33 l-37 0 29 -23 c27 -22 28 -26 18 -56 -12 -34 -6 -34 31 -3 15 13 19
    13 35 0 36 -31 42 -31 30 3 -10 30 -9 34 18 56 l29 23 -37 0 c-34 0 -38 3 -47
    33 l-9 32 -12 -32z M595 1760 c-6 -27 -11 -30 -43 -30 l-37 -1 29 -23 c26 -22
    28 -27 18 -55 -10 -29 -10 -30 8 -21 10 6 22 15 25 20 4 7 19 3 40 -10 l34
    -21 -11 32 c-10 30 -9 34 16 56 l27 23 -34 0 c-30 0 -37 4 -46 30 -5 17 -12
    30 -15 30 -2 0 -7 -13 -11 -30z M855 1760 c-6 -27 -11 -30 -43 -30 l-37 -1 27
    -22 c25 -20 27 -26 19 -55 l-10 -32 28 19 c25 18 30 19 47 6 28 -21 34 -18 28
    14 -5 22 -1 32 21 50 l28 21 -36 0 c-30 0 -37 4 -46 30 -5 17 -12 30 -15 30
    -2 0 -7 -13 -11 -30z"/>
  </g>
</svg>
