<?xml version="1.0" encoding="UTF-8" standalone="no"?>
<svg
   xmlns:dc="http://purl.org/dc/elements/1.1/"
   xmlns:cc="http://creativecommons.org/ns#"
   xmlns:rdf="http://www.w3.org/1999/02/22-rdf-syntax-ns#"
   xmlns:svg="http://www.w3.org/2000/svg"
   xmlns="http://www.w3.org/2000/svg"
   xmlns:sodipodi="http://sodipodi.sourceforge.net/DTD/sodipodi-0.dtd"
   xmlns:inkscape="http://www.inkscape.org/namespaces/inkscape"
   version="1.1"
   id="svg2"
   xml:space="preserve"
   width="981.62665"
   height="296.76001"
   viewBox="0 0 981.62665 296.76001"
   sodipodi:docname="acronimo.eps"><metadata
     id="metadata8"><rdf:RDF><cc:Work
         rdf:about=""><dc:format>image/svg+xml</dc:format><dc:type
           rdf:resource="http://purl.org/dc/dcmitype/StillImage" /></cc:Work></rdf:RDF></metadata><defs
     id="defs6" /><sodipodi:namedview
     pagecolor="#ffffff"
     bordercolor="#666666"
     borderopacity="1"
     objecttolerance="10"
     gridtolerance="10"
     guidetolerance="10"
     inkscape:pageopacity="0"
     inkscape:pageshadow="2"
     inkscape:window-width="640"
     inkscape:window-height="480"
     id="namedview4" /><g
     id="g10"
     inkscape:groupmode="layer"
     inkscape:label="ink_ext_XXXXXX"
     transform="matrix(1.3333333,0,0,-1.3333333,0,296.76)"><g
       id="g12"
       transform="scale(0.1)"><path
         d="m 2772.61,1069.83 c -90.37,87.33 -213.72,141.05 -349.4,141.05 -223.19,0 -404.74,-181.14 -404.74,-404.341 0,-223.199 180.95,-404.328 404.16,-404.328 136.44,0 259.39,54.328 349.98,142.559 V 79.2617 C 2667.09,28.6016 2547.49,0.199219 2422.63,0.199219 c -445.33,0 -806.34,361.011781 -806.34,806.339781 0,445.341 361.01,806.341 806.34,806.341 125.04,0 244.37,-28.45 349.98,-79.24 v -463.81"
         style="fill:#2e2c6d;fill-opacity:1;fill-rule:nonzero;stroke:none"
         id="path14" /><path
         d="m 1008.3,1618.34 v -912.5 c 0,-166.891 -135.601,-302.168 -302.487,-302.168 -166.887,0 -302.161,135.277 -302.161,302.168 v 912.5 H 0 V 706.082 C 0,316.121 316.117,0 706.063,0 1096.02,0 1412.73,316.121 1412.73,706.082 V 1618.34 H 1008.3"
         style="fill:#2e2c6d;fill-opacity:1;fill-rule:evenodd;stroke:none"
         id="path16" /><path
         d="m 3783.85,1817.98 -233.18,-606.61 281.95,-0.18 -5.74,-0.7 c 223.2,0 403.55,-180.94 403.55,-404.138 0,-223.211 -180.93,-404.141 -404.14,-404.141 -223.21,0 -404.14,180.93 -404.14,404.141 L 3020.22,805.57 C 3020.22,360.238 3380.96,0 3826.29,0 c 445.34,0 806.33,361.02 806.33,806.352 0,344.178 -215.04,637.998 -518.59,753.698 l 257.42,665.65 -1247.14,-3.03 v -404.31 l 659.54,-0.38"
         style="fill:#2e2c6d;fill-opacity:1;fill-rule:evenodd;stroke:none"
         id="path18" /><path
         d="m 6200.26,1382.69 c -119.98,143.14 -300.1,234.17 -501.49,234.17 -131.87,0 -254.04,-39.04 -356.75,-106.17 l 1.52,105.76 h -402.6 V 1.21094 h 402.6 l 1.82,909.82006 c 0,166.879 134.68,302.169 301.58,302.169 166.87,0 301.5,-136.26 301.5,-303.149 V 1.21094 h 404.83 l 0.13,909.82006 c 0,166.879 134.71,302.169 301.59,302.169 166.87,0 302.18,-135.29 302.18,-302.169 L 6956.49,1.21094 h 404.49 l 1.17,961.93706 c 0,362.292 -295.02,653.712 -657.3,653.712 -202.81,0 -384.28,-89.59 -504.59,-234.17"
         style="fill:#2e2c6d;fill-opacity:1;fill-rule:evenodd;stroke:none"
         id="path20" /></g></g></svg>
