<?xml version="1.0" encoding="UTF-8" standalone="no"?>
<svg
   version="1.1"
   id="svg1"
   width="962.35321"
   height="325.38861"
   viewBox="0 0 962.35321 325.38861"
   sodipodi:docname="Logo-Horizontal - Text as Path.svg"
   inkscape:version="1.4.3 (0d15f75, 2025-12-25)"
   inkscape:export-filename="Logo-Horizontal.png"
   inkscape:export-xdpi="96"
   inkscape:export-ydpi="96"
   xmlns:inkscape="http://www.inkscape.org/namespaces/inkscape"
   xmlns:sodipodi="http://sodipodi.sourceforge.net/DTD/sodipodi-0.dtd"
   xmlns="http://www.w3.org/2000/svg"
   xmlns:svg="http://www.w3.org/2000/svg">
  <defs
     id="defs1" />
  <sodipodi:namedview
     id="namedview1"
     pagecolor="#ffffff"
     bordercolor="#000000"
     borderopacity="0.25"
     inkscape:showpageshadow="2"
     inkscape:pageopacity="0.0"
     inkscape:pagecheckerboard="0"
     inkscape:deskcolor="#d1d1d1"
     inkscape:zoom="0.89722222"
     inkscape:cx="485.94427"
     inkscape:cy="44.582043"
     inkscape:window-width="1440"
     inkscape:window-height="890"
     inkscape:window-x="-6"
     inkscape:window-y="-6"
     inkscape:window-maximized="1"
     inkscape:current-layer="lockup" />
  <g
     id="lockup"
     transform="translate(-168.94666,-174.9716)">
    <g
       id="shell"
       transform="matrix(1.3333333,0,0,-1.3333333,0,720)">
      <path
         id="shell4"
         d="m 201.89,172.8 c 15.62,-6.62 32.61,-9.24 49.24,-7.59 5.47,16.93 8.23,34.66 8.19,52.6 -6.16,-1.68 -12.7,-1.99 -19.14,-0.9 -10.74,-16.51 -24.24,-31.15 -40.01,-43.37 0.57,-0.25 1.15,-0.49 1.72,-0.74"
         fill="#43998e"
         fill-rule="evenodd" />
      <path
         id="shell5"
         d="m 233.62,218.5 c -1.23,0.41 -2.45,0.87 -3.67,1.38 -5.73,2.42 -11.04,5.75 -15.67,9.85 -20.15,-8.99 -41.94,-14.47 -64.4,-16.2 11.44,-15.41 26.51,-28.08 43.91,-36.93 15.66,11.71 29.11,25.86 39.83,41.9"
         fill="#43998e"
         fill-rule="evenodd" />
      <path
         id="shell6"
         d="m 145.83,219.42 c 22.17,1.32 43.75,6.42 63.72,15.04 -5.54,6.28 -9.52,13.65 -11.62,21.51 -24.6,2.89 -48.49,10.19 -71.14,21.75 0.86,-20.48 7.44,-40.61 19.04,-58.3"
         fill="#43998e"
         fill-rule="evenodd" />
      <path
         id="shell7"
         d="m 215.27,237.22 c 6.33,3.02 12.47,6.36 18.4,10.01 -2.07,2.17 -3.72,4.67 -4.86,7.38 -8.06,-0.23 -16.15,-0.01 -24.23,0.66 2.11,-6.66 5.77,-12.83 10.69,-18.05"
         fill="#43998e"
         fill-rule="evenodd" />
      <path
         id="shell8"
         d="m 196.61,262.17 c -1.13,8.53 -0.02,17.09 3.22,24.91 -21.44,15.45 -39.52,34.74 -53.83,57.44 -4.19,-6.51 -7.8,-13.36 -10.81,-20.47 -5.3,-12.48 -8.18,-25.87 -8.48,-39.53 22.22,-11.77 45.69,-19.27 69.9,-22.35"
         fill="#43998e"
         fill-rule="evenodd" />
      <path
         id="shell9"
         d="m 203.06,261.63 c 8.04,-0.74 16.09,-1.01 24.13,-0.83 -0.36,3.09 -0.05,6.18 0.91,9.09 -7.92,4.03 -15.59,8.52 -22.96,13.46 -2.57,-6.88 -3.28,-14.34 -2.08,-21.72"
         fill="#43998e"
         fill-rule="evenodd" />
      <path
         id="shell10"
         d="m 202.46,292.61 c 4.18,7.65 10.01,14.3 17.13,19.55 -11.75,25.53 -17.53,53 -17.18,81.76 -21.14,-10.2 -39.18,-25.24 -52.58,-43.84 13.86,-22.75 31.55,-42.05 52.63,-57.47"
         fill="#43998e"
         fill-rule="evenodd" />
      <path
         id="shell11"
         d="m 230.75,275.43 c 1.61,2.52 3.64,4.74 6.02,6.6 -5.41,7.82 -10.25,15.98 -14.51,24.4 -6.06,-4.75 -11.01,-10.65 -14.54,-17.37 7.37,-5.01 15.07,-9.56 23.03,-13.63"
         fill="#43998e"
         fill-rule="evenodd" />
      <path
         id="shell12"
         d="m 242.16,285.28 c 2.62,1.2 5.43,2.01 8.35,2.39 -0.84,10.16 -0.87,20.34 -0.08,30.43 -8.2,-1.09 -16.01,-3.83 -22.9,-8.03 4.25,-8.57 9.14,-16.85 14.63,-24.79"
         fill="#43998e"
         fill-rule="evenodd" />
      <path
         id="shell13"
         d="m 224.8,315.65 c 7.96,4.67 16.95,7.6 26.36,8.59 3.48,29.64 14.52,57.77 32.89,83.73 -25.95,2.62 -51.86,-1.21 -75.21,-11.12 -0.84,-28.59 4.53,-55.88 15.96,-81.2"
         fill="#43998e"
         fill-rule="evenodd" />
      <path
         id="shell14"
         d="m 256.96,287.82 c 2.76,-0.24 5.49,-0.87 8.1,-1.85 4.92,9.81 10.71,19.16 17.31,27.97 -8.09,3.29 -16.74,4.89 -25.37,4.7 -0.88,-10.22 -0.89,-20.52 -0.04,-30.82"
         fill="#43998e"
         fill-rule="evenodd" />
      <path
         id="shell15"
         d="m 277.26,278.36 c 10.37,6.48 21.39,12.01 32.92,16.51 -6.23,6.62 -13.61,12.15 -21.8,16.3 -6.7,-8.8 -12.55,-18.18 -17.5,-28.03 2.3,-1.36 4.44,-2.97 6.38,-4.78"
         fill="#43998e"
         fill-rule="evenodd" />
      <path
         id="shell16"
         d="m 285.75,266.25 c 14.07,0.47 28.22,-0.46 42.22,-2.77 -2.64,9.45 -7.21,18.38 -13.42,26.27 -11.56,-4.38 -22.6,-9.82 -32.99,-16.25 1.69,-2.26 3.1,-4.69 4.19,-7.25"
         fill="#43998e"
         fill-rule="evenodd" />
      <path
         id="shell17"
         d="m 327.56,224.68 c 3.21,10.37 3.86,21.42 1.91,32.3 -13.83,2.45 -27.82,3.5 -41.75,3.12 0.69,-3.16 0.9,-6.38 0.65,-9.56 13.99,-7.19 27.15,-15.87 39.19,-25.86"
         fill="#43998e"
         fill-rule="evenodd" />
      <path
         id="shell18"
         d="m 258.17,166.25 c 14.99,2.64 28.92,8.75 40.6,17.79 -4.88,15.64 -11.87,30.68 -20.79,44.73 -3.51,-3.56 -7.69,-6.46 -12.33,-8.56 0.29,-18.36 -2.22,-36.54 -7.48,-53.96"
         fill="#43998e"
         fill-rule="evenodd" />
      <path
         id="shell19"
         d="m 304.05,188.47 c 9.22,8.37 16.45,18.56 21.22,29.93 l 0.05,0.13 c -11.66,9.94 -24.45,18.58 -38.1,25.73 -0.34,-1.15 -0.75,-2.29 -1.22,-3.39 -1.04,-2.47 -2.33,-4.82 -3.85,-7.02 9.27,-14.25 16.63,-29.5 21.9,-45.38"
         fill="#43998e"
         fill-rule="evenodd" />
    </g>
    <path
       d="m 530.4,302.5 h 11.2 q 10,0 15.9,2.7 5.9,2.6 8.6,6.9 2.8,4.3 3.1,9.5 0.3,5.5 -1.7,10 -1.9,4.5 -5.5,7.5 -3.5,3 -8,4.3 -4.5,1.2 -9.4,0.4 -4.9,-0.9 -9.5,-4.2 v -1 q 0,0 0.9,-0.1 1,-0.2 2.5,-0.8 1.5,-0.6 3.1,-1.8 1.7,-1.2 3.2,-3.4 1.5,-2.3 2.3,-5.7 0.4,-1.5 0.5,-3.1 0.2,-1.6 0.1,-2.9 -0.2,-6.1 -3.5,-9.7 -3.2,-3.6 -9,-3.6 h -3.8 q 0,0 -0.3,-1.2 -0.2,-1.3 -0.5,-2.5 z m 1.3,0 v 70 h -20.5 v -70 z m -20.2,62.7 v 7.3 h -8 v -1 q 0.2,0 0.7,0 0.5,0 0.6,0 2.6,0 4.4,-1.8 1.9,-1.9 2,-4.5 z m 0,-55.4 h -0.3 q 0,-2.6 -1.9,-4.4 -1.9,-1.9 -4.5,-1.9 -0.1,0 -0.6,0 -0.4,0 -0.6,0 l -0.1,-1 h 8 z m 19.9,55.4 h 0.3 q 0.1,2.6 1.9,4.5 1.9,1.8 4.5,1.8 0.2,0 0.7,0 0.5,0 0.6,0 v 1 h -8 z m 73.80007,-62.7 h 12.1 q 4.5,0 9.2,0.8 4.7,0.8 8.6,2.9 3.9,2 6.3,5.7 2.4,3.7 2.4,9.5 0,3.8 -1.4,7.9 -1.4,4 -4.9,7.1 -3.4,3 -9.7,4 4.2,1.2 7.3,4.1 3.1,2.9 4.9,5.9 0.2,0.3 1,1.7 0.8,1.4 2,3.5 1.3,2 2.7,4.2 1.4,2.2 2.8,4.1 2.3,3.1 4,4.7 1.7,1.6 3.4,2.2 1.8,0.6 4.2,0.7 v 1 h -12.5 q -6,0 -11.1,-0.7 -5.1,-0.7 -9.2,-3.1 -4,-2.4 -7.1,-7.6 -1.1,-1.8 -1.8,-3.6 -0.7,-1.8 -1.2,-3.5 -0.5,-1.7 -0.9,-3.2 -0.3,-1.6 -0.6,-3 -0.3,-1.5 -0.7,-2.8 -1,-3.6 -2.4,-4.9 -1.4,-1.3 -2.8,-1.8 v -1 q 0.4,0 0.9,0 0.5,0 0.7,0 2.8,0 5,-1.3 2.2,-1.3 3.7,-4 1.5,-2.7 2,-7 0.1,-0.8 0.2,-1.7 0.1,-1 0,-2.4 -0.4,-7.4 -3.7,-10.3 -3.2,-2.9 -7.7,-2.9 -0.5,0 -1.3,0 -0.8,0 -1.7,0 -0.9,0 -1.7,0 0,0 -0.3,-1.3 -0.2,-1.3 -0.5,-2.6 z m 1.3,0 v 70 h -20.6 v -70 z m -20.3,62.7 v 7.3 h -8 v -1 q 0.2,0 0.7,0 0.5,0 0.6,0 2.6,0 4.4,-1.8 1.9,-1.9 2,-4.5 z m 0,-55.4 h -0.3 q -0.1,-2.6 -2,-4.4 -1.8,-1.9 -4.4,-1.9 -0.1,0 -0.6,0 -0.5,0 -0.7,0 v -1 h 8 z m 20,55.4 h 0.3 q 0,2.6 1.9,4.5 1.9,1.8 4.5,1.8 0.2,0 0.6,0 0.5,0 0.6,0 v 1 h -7.9 z m 94.79988,-64.1 q 12.9,0 22.2,4.4 9.4,4.3 14.4,12.4 5,8.1 5,19.6 0,11.4 -5,19.6 -5,8.1 -14.4,12.5 -9.3,4.3 -22.2,4.3 -12.9,0 -22.2,-4.3 -9.3,-4.4 -14.3,-12.5 -5,-8.1 -5,-19.6 0,-11.4 5,-19.5 5,-8.2 14.3,-12.5 9.3,-4.4 22.2,-4.4 z m 0,67.8 q 6.2,0 10.5,-3.7 4.4,-3.8 6.7,-10.8 2.3,-7 2.3,-16.9 0,-9.9 -2.3,-16.9 -2.3,-7 -6.7,-10.7 -4.3,-3.8 -10.5,-3.8 -6.1,0 -10.5,3.8 -4.3,3.7 -6.6,10.7 -2.3,7 -2.3,16.9 0,9.9 2.3,16.9 2.3,7 6.6,10.8 4.4,3.7 10.5,3.7 z m 78.90008,-67.8 q 2.2,0 5.9,0.2 3.7,0.2 7.7,0.6 4,0.3 7,0.7 3,0.3 3.9,0.7 l -2,15.1 h -1 q 0,-5.5 -4.3,-8.9 -4.2,-3.4 -11.6,-3.4 -6.1,0 -9.7,2.4 -3.6,2.3 -3.9,6 -0.3,3.6 2.4,5.6 2.8,2 6.5,3.7 l 18.7,8.7 q 5.6,2.5 8.8,7.3 3.2,4.8 2.7,12.1 -0.7,10.7 -9,16.4 -8.2,5.6 -22.4,5.6 -5.8,0 -10.5,-0.9 -4.7,-0.9 -8.1,-2.3 -3.3,-1.5 -5.1,-3.3 -1.1,-2.5 -0.9,-6.1 0.2,-3.6 1.3,-7.1 1.2,-3.6 2.8,-5.7 h 0.9 q -0.3,5.2 2.2,9.9 2.5,4.7 7.5,7.6 5,2.9 12,2.9 7.2,0 10.6,-3 3.5,-3 3.5,-6.8 0,-3.2 -2.5,-5.8 -2.4,-2.6 -8.1,-5.2 l -16.3,-7.6 q -6.9,-3.2 -10.1,-8.8 -3.1,-5.6 -2.2,-12.7 0.7,-5.8 3.7,-9.8 3,-4 7.9,-6 5,-2.1 11.7,-2.1 z m 24.7,1 -0.3,2.1 h -14.5 v -2.1 z m 43.80003,0.4 h 11.2 q 10,0 15.9,2.7 5.9,2.6 8.6,6.9 2.8,4.3 3.1,9.5 0.3,5.5 -1.7,10 -1.9,4.5 -5.5,7.5 -3.5,3 -8,4.3 -4.5,1.2 -9.4,0.4 -4.9,-0.9 -9.5,-4.2 v -1 q 0,0 0.9,-0.1 1,-0.2 2.5,-0.8 1.5,-0.6 3.1,-1.8 1.7,-1.2 3.2,-3.4 1.5,-2.3 2.3,-5.7 0.4,-1.5 0.5,-3.1 0.2,-1.6 0.1,-2.9 -0.2,-6.1 -3.5,-9.7 -3.2,-3.6 -9,-3.6 h -3.8 q 0,0 -0.3,-1.2 -0.2,-1.3 -0.5,-2.5 z m 1.3,0 v 70 h -20.5 v -70 z m -20.2,62.7 v 7.3 h -8 v -1 q 0.2,0 0.7,0 0.5,0 0.6,0 2.6,0 4.4,-1.8 1.9,-1.9 2,-4.5 z m 0,-55.4 h -0.3 q 0,-2.6 -1.9,-4.4 -1.9,-1.9 -4.5,-1.9 -0.1,0 -0.6,0 -0.4,0 -0.6,0 l -0.1,-1 h 8 z m 19.9,55.4 h 0.3 q 0.1,2.6 1.9,4.5 1.9,1.8 4.5,1.8 0.2,0 0.7,0 0.5,0 0.6,0 v 1 h -8 z m 74.50007,-62.7 v 70 h -20.5 v -70 z m 26,64.9 4,5.1 h -30.3 v -5.1 z m -3.3,-31.9 v 5 h -23 v -5 z m 5.3,-33 v 5.1 h -28.3 v -5.1 z m 6.1,46.8 -3.8,23.2 h -21.6 l 3.6,-5.1 q 4.8,0 8.9,-2.1 4.2,-2.2 7.3,-6.2 3.1,-4.1 4.6,-9.8 z m -11.4,-9 v 11.6 h -1 v -0.5 q 0,-4.7 -3.1,-7.7 -3,-3.1 -7.7,-3.2 v -0.2 z m 0,-16.2 v 11.6 h -11.8 v -0.2 q 4.7,-0.1 7.8,-3.2 3.1,-3.1 3,-7.8 v -0.4 z m 5.3,-16.8 v 14 h -1 v -0.8 q 0,-6 -3.4,-9.4 -3.4,-3.5 -9.5,-3.6 v -0.2 z m 0,-6.6 v 2.9 l -12.2,-1.1 q 2.2,0 4.6,-0.3 2.5,-0.3 4.6,-0.7 2.1,-0.4 3,-0.8 z m -48.2,64.5 v 7.3 h -8 v -1 q 0,0 0.6,0 0.7,0 0.7,0 2.6,0 4.4,-1.8 1.9,-1.9 2,-4.5 z m 0,-55.4 h -0.3 q -0.1,-2.6 -2,-4.4 -1.8,-1.9 -4.4,-1.9 0,0 -0.7,0 -0.6,0 -0.6,0 v -1 h 8 z m 90.19996,-7.3 h 12.10001 q 4.5,0 9.2,0.8 4.7,0.8 8.6,2.9 3.9,2 6.3,5.7 2.4,3.7 2.4,9.5 0,3.8 -1.4,7.9 -1.4,4 -4.9,7.1 -3.4,3 -9.7,4 4.2,1.2 7.3,4.1 3.1,2.9 4.9,5.9 0.2,0.3 1,1.7 0.8,1.4 2,3.5 1.3,2 2.7,4.2 1.4,2.2 2.8,4.1 2.3,3.1 4,4.7 1.7,1.6 3.4,2.2 1.8,0.6 4.2,0.7 v 1 h -12.5 q -6,0 -11.1,-0.7 -5.1,-0.7 -9.2,-3.1 -4,-2.4 -7.1,-7.6 -1.1,-1.8 -1.8,-3.6 -0.7,-1.8 -1.2,-3.5 -0.5,-1.7 -0.9,-3.2 -0.3,-1.6 -0.6,-3 -0.3,-1.5 -0.7,-2.8 -1,-3.6 -2.4,-4.9 -1.40001,-1.3 -2.80001,-1.8 v -1 q 0.4,0 0.9,0 0.5,0 0.70001,0 2.8,0 5,-1.3 2.2,-1.3 3.7,-4 1.5,-2.7 2,-7 0.1,-0.8 0.2,-1.7 0.1,-1 0,-2.4 -0.4,-7.4 -3.7,-10.3 -3.2,-2.9 -7.70001,-2.9 -0.5,0 -1.3,0 -0.8,0 -1.7,0 -0.9,0 -1.7,0 0,0 -0.3,-1.3 -0.2,-1.3 -0.5,-2.6 z m 1.3,0 v 70 h -20.6 v -70 z m -20.3,62.7 v 7.3 h -8 v -1 q 0.2,0 0.7,0 0.5,0 0.6,0 2.6,0 4.4,-1.8 1.9,-1.9 2,-4.5 z m 0,-55.4 h -0.3 q -0.1,-2.6 -2,-4.4 -1.8,-1.9 -4.4,-1.9 -0.1,0 -0.6,0 -0.5,0 -0.7,0 v -1 h 8 z m 20,55.4 h 0.3 q 0,2.6 1.9,4.5 1.9,1.8 4.50001,1.8 0.2,0 0.6,0 0.5,0 0.6,0 v 1 h -7.90001 z M 1089.7,301.1 q 12.9,0 22.2,4.4 9.4,4.3 14.4,12.4 5,8.1 5,19.6 0,11.4 -5,19.6 -5,8.1 -14.4,12.5 -9.3,4.3 -22.2,4.3 -12.9,0 -22.2,-4.3 -9.3,-4.4 -14.3,-12.5 -5,-8.1 -5,-19.6 0,-11.4 5,-19.5 5,-8.2 14.3,-12.5 9.3,-4.4 22.2,-4.4 z m 0,67.8 q 6.2,0 10.5,-3.7 4.4,-3.8 6.7,-10.8 2.3,-7 2.3,-16.9 0,-9.9 -2.3,-16.9 -2.3,-7 -6.7,-10.7 -4.3,-3.8 -10.5,-3.8 -6.1,0 -10.5,3.8 -4.3,3.7 -6.6,10.7 -2.3,7 -2.3,16.9 0,9.9 2.3,16.9 2.3,7 6.6,10.8 4.4,3.7 10.5,3.7 z"
       id="wordmark"
       style="font-weight:900;font-size:100px;font-family:'Cinzel Black', Cinzel, serif;letter-spacing:4;fill:#43998e"
       aria-label="PROSPERO" />
  </g>
</svg>
